<svg id="Lag_1" data-name="Lag 1" xmlns="http://www.w3.org/2000/svg" viewBox="0 0 134.38 133.17"><defs><style>.cls-1{fill:#012c32;}</style></defs><path class="cls-1" d="M15,78.84c-.81.14-1.61-.12-1.76-1a2.51,2.51,0,0,1,0-.93l.14-.07a8.69,8.69,0,0,0,2.1,0c.74-.12,1.26-.5,1.11-1.35-.37-2.13-2.38-.49-6.46.22L2.73,77c-.76.13-1.23.63-1,1.71l.09.53-.21,0L.46,72.88l.21,0,.1.53c.18,1.07.82,1.39,1.55,1.27l9.23-1.59c3-.52,4.85.06,5.28,2.53C17.19,77.65,16.15,78.64,15,78.84Z"/><path class="cls-1" d="M9.49,68.76l-7.88-.27C.75,68.46.28,68.91.24,70l0,.54H0L.23,64H.45l0,.54c0,1.06.43,1.53,1.27,1.56l8.58.31c4.2.14,5.13-1.66,5.2-3.6S14.09,59.1,9.93,59L2.4,58.68c-1.1,0-1.77.41-1.81,1.45l0,.54H.35L.51,56.3H.73l0,.54c0,1.06.67,1.54,1.7,1.57l7.66.27c3.79.14,6,1.75,5.93,4.92S14.09,68.93,9.49,68.76Z"/><path class="cls-1" d="M19.86,47.54c-.92.1-1.12.4-2.3,4.55L16,57.6l-.22-.06.15-.52c.3-1.06-.11-1.61-.85-1.82L3.21,51.82c-.74-.22-1.38,0-1.68,1.09l-.15.52-.21-.06L3,47.14l.21.06L3,47.72c-.29,1,.14,1.61.86,1.81L17,53.28l.51-1.81c.53-1.84-.57-4.47-5.36-6.71l.06-.21a49.59,49.59,0,0,0,7.67,2.91Z"/><path class="cls-1" d="M19.14,46.69l.24-.49c.48-1,.16-1.6-.53-1.94L7.75,38.91c-.69-.34-1.37-.21-1.85.78l-.23.49-.2-.1,2.82-5.83.2.09-.24.49a1.29,1.29,0,0,0,.54,1.94l11.09,5.35c.68.33,1.38.19,1.85-.78l.23-.49.2.1-2.82,5.83Z"/><path class="cls-1" d="M29.5,32.4c-.89-.24-1.24,0-3.84,3.49l-3.45,4.57L22,40.32l.32-.43c.67-.88.47-1.54-.14-2l-9.84-7.42c-.61-.47-1.3-.47-2,.41l-.33.43-.17-.13,3.69-4.9c2.19-2.9,2.41-3.38,2.18-4.06h.14a28.43,28.43,0,0,0,4.58,3.62V26c-3.18-1.75-4.6-2.42-6.37-.07l-1.38,1.83,5.39,4.06c1.67-2.17,1.34-2.8.1-4.33l.13-.06a24.68,24.68,0,0,0,4.71,3.44v.17c-2.29-1.16-3-1.41-4.77.92l6.38,4.81,1.22-1.62c1.15-1.54,1.6-4-2.06-7.8l.11-.14a40.42,40.42,0,0,0,5.57,5.07Z"/><path class="cls-1" d="M29.65,13.43l-.09.05,5.52,10c.53,1,1.27,1.32,2.17.82l.57-.32.11.2L34,26.35l-.1-.19.47-.26a1.43,1.43,0,0,0,.5-2.21L29.1,13.23a1.18,1.18,0,0,0-1.83-.5l-.46.25-.1-.19,3.73-2,9.27,8.45.09-.05L37.4,6.9l3.69-2,.1.19-.38.21c-.94.52-1.11,1.11-.69,1.86l6,10.82c.41.75,1.05.92,2,.42l.47-.26.11.19-5.77,3.19-.11-.2.57-.31c.93-.51,1.09-1.15.72-1.83L38.15,8.49,38,8.57,40.77,23l-.19.11Z"/><path class="cls-1" d="M46.75,18.91l.53-.13c1-.24,1.41-1.62,1.53-3.53l.78-11c-.36-.68-.68-.7-1.14-.61l0-.17c1.21-.29,2.25-.88,2.17-2.13l.17,0a10.31,10.31,0,0,0,1.3,2.82l6.24,10.12c.75,1.22,1.21,1.63,2.3,1.37l.23-.06,0,.22-6.3,1.5,0-.21.63-.15c1-.25,1.48-1,.77-2.18l-2-3.33L49.3,12.5l-.23,3.12c-.12,1.72.56,2.6,1.57,2.36l.63-.15,0,.21L46.8,19.12Zm7.09-7.76L49.91,4.94l-.1,0-.48,7.27Z"/><path class="cls-1" d="M61.77,15.82h.54c1.1,0,1.5-.59,1.48-1.36L63.5.81l-.91,0c-2.29.05-3.41,2.29-3.35,6h-.15a18.31,18.31,0,0,0-1-6.43l.07-.09c.59.32,1.89.38,5.66.3l1.73,0C69.32.46,70.61.34,71.19,0l.07.09a18.1,18.1,0,0,0-.72,6.46h-.16c-.1-3.68-1.31-5.87-3.6-5.83l-.91,0,.3,13.65c0,.75.46,1.31,1.54,1.29h.54v.22L61.78,16Z"/><path class="cls-1" d="M71.4,15.47l.53.13c1.07.26,1.6-.17,1.78-.92l3-12c.18-.75-.08-1.38-1.15-1.64L75,.94l.06-.22,6.28,1.56,0,.22-.52-.13c-1-.26-1.61.19-1.79.91L77.6,8.88l5.86,1.46,1.39-5.6C85,4,84.77,3.36,83.7,3.09L83.18,3l0-.21,6.29,1.56,0,.21-.53-.13c-1-.26-1.6.19-1.78.92l-3,12c-.18.72.1,1.38,1.15,1.64l.53.13-.06.22-6.28-1.56,0-.22.52.13c1.07.27,1.6-.17,1.79-.91l1.51-6.12L77.53,9.14,76,15.25c-.18.73.1,1.39,1.15,1.65l.52.13,0,.21-6.29-1.56Z"/><path class="cls-1" d="M86.05,19.6l.48.23c1,.48,1.61.16,1.94-.53L93.84,8.21c.33-.7.2-1.37-.79-1.85l-.48-.23.09-.2,5.83,2.82L98.4,9l-.49-.24A1.28,1.28,0,0,0,96,9.24L90.61,20.33c-.33.68-.19,1.38.79,1.85l.48.24-.09.19L86,19.79Z"/><path class="cls-1" d="M100.4,29.75c.22-.9,0-1.19-3.49-3.72l-4.64-3.36.13-.18.44.32c.89.64,1.55.44,2-.19l7.23-10c.45-.62.44-1.31-.45-2l-.44-.31.13-.18,5.24,3.8-.12.18-.44-.32a1.29,1.29,0,0,0-2,.18L96,25.09l1.52,1.1c1.56,1.13,4.4,1,8.14-2.74l.18.12a48.71,48.71,0,0,0-5.35,6.21Z"/><path class="cls-1" d="M102.75,30.69l-1.3-1.53.16-.14.35.41c.72.83,1.41.79,2,.29l9.37-8c.58-.5.73-1.17,0-2l-.35-.41.16-.14,1.49,1.74c.61.7,2,2.12,2.49,2.73,3.33,3.89,1.77,7.35-1.34,10-4.21,3.61-7.61,3.54-10.87-.27C104.34,32.68,103.15,31.14,102.75,30.69Zm11.14.95c2.38-2,6.24-4.12,3.22-7.64a5.9,5.9,0,0,0-1.38-1.24l-11.09,9.49a5.24,5.24,0,0,0,1,1.51C108.5,37.09,110.35,34.68,113.89,31.64Z"/><path class="cls-1" d="M114,49.19c.6-.7.51-1.14-1.47-5l-2.61-5.1.19-.1.25.48c.5,1,1.18,1.1,1.86.75l11-5.63c.69-.36,1-1,.49-2l-.25-.48.2-.1,2.8,5.45c1.66,3.23,2,3.64,2.71,3.74l-.06.12a28.55,28.55,0,0,0-5.25,2.55l-.17-.08c3-2.1,4.18-3.09,2.84-5.71l-1-2-6,3.08c1.23,2.45,1.94,2.43,3.86,2v.14a24.84,24.84,0,0,0-5.15,2.75l-.16-.07c2-1.56,2.59-2.1,1.26-4.7L112.09,43l.92,1.81c.88,1.71,2.9,3.18,7.92,1.54l.08.16a40.14,40.14,0,0,0-7,2.81Z"/><path class="cls-1" d="M117.31,70.83c.85-.37.94-.81.79-5.12L117.9,60h.22l0,.54c0,1.1.61,1.49,1.37,1.47l12.32-.43c.77,0,1.31-.46,1.27-1.56l0-.54h.22l.21,6.12c.13,3.63.26,4.14.87,4.53l-.11.09a28.92,28.92,0,0,0-5.83.08l-.12-.15c3.57-.64,5.1-1,5-4l-.08-2.28-6.75.23c.07,2.74.72,3,2.65,3.43l-.06.13a24.32,24.32,0,0,0-5.82.29l-.12-.12c2.52-.55,3.23-.81,3.13-3.72l-8,.28.07,2c.07,1.92,1.26,4.11,6.51,4.77v.17a40.64,40.64,0,0,0-7.52-.43Z"/><path class="cls-1" d="M115.22,82.58c1.15.13,1.58-.22,1.7-.83.2-.94-.32-2.47-.06-3.72.74-3.6,4.41-5.6,9.07-4.64,4.46.92,7,4.21,6.3,7.81-.23,1.1-.5,2-.65,2.69s-.15,1.29.23,1.63l-.13.09a36.81,36.81,0,0,0-6.09-1.72l0-.11c4,.62,5.84.12,6.41-2.62.81-4-4-4.36-6.51-4.88s-7.58-2.22-8.42,1.84c-.6,2.92,1.6,3.22,4.08,3.73,1.53.32,2.09-.08,2.3-1.09l.21-1,.22,0-1.25,6-.21,0,.08-.42c.19-.93-.51-1.21-2-1.53l-5.28-1.09Z"/><path class="cls-1" d="M109.94,93.86c1.07.4,1.58.17,1.85-.4.42-.85.29-2.47.85-3.62,1.6-3.3,5.64-4.34,9.92-2.28,4.11,2,5.8,5.8,4.21,9.11-.49,1-1,1.81-1.28,2.45s-.47,1.21-.19,1.64l-.14,0a37.09,37.09,0,0,0-5.49-3.16l0-.1c3.78,1.59,5.64,1.55,6.86-1,1.76-3.63-2.8-5.19-5.12-6.31s-6.81-4-8.61-.27c-1.3,2.68.77,3.51,3,4.61,1.4.68,2,.44,2.49-.5l.46-.95.2.1-2.68,5.54-.2-.1.19-.39c.41-.85-.21-1.3-1.61-2L109.88,94Z"/><path class="cls-1" d="M102.45,102.69c.88.28,1.24,0,4-3.28L110.15,95l.17.14-.35.41c-.71.85-.55,1.51,0,2l9.44,7.94c.59.49,1.27.53,2-.31l.35-.41.17.14-4,4.69c-2.33,2.78-2.58,3.25-2.39,4h-.14a28.31,28.31,0,0,0-4.38-3.85v-.19c3.08,1.91,4.47,2.66,6.36.41l1.47-1.75-5.17-4.35c-1.78,2.08-1.49,2.72-.33,4.32l-.13.06a24.15,24.15,0,0,0-4.52-3.69v-.17c2.22,1.28,2.93,1.57,4.81-.67l-6.12-5.14-1.3,1.55c-1.24,1.47-1.81,3.9,1.64,7.9l-.11.13a41.47,41.47,0,0,0-5.3-5.36Z"/><path class="cls-1" d="M98.17,111.85c2,2.33,2.44,2.74,3.45,2.44a13.37,13.37,0,0,1,1.17-1l.95-.71-3.59-4.92a1.29,1.29,0,0,0-2-.17l-.44.32-.13-.18,5.23-3.82.13.17-.44.32c-.89.65-.89,1.34-.44,2l7.28,10c.45.62,1.11.82,2,.17l.44-.32.13.18-1.85,1.35c-.75.55-1.81,1.47-2.77,2.17-3.19,2.33-5,2.25-6.72,0A3.64,3.64,0,0,1,101,115l0,0c-1.47.77-2.9.71-4.73-1.31-1.38-1.53-2.19-3-3-2.43-.45.33-.18,1.14.21,1.68a1.42,1.42,0,0,0,.47.45c0,.08-.11.21-.23.16a2.32,2.32,0,0,1-.46-.48,2,2,0,0,1,.54-2.88C95,109.28,96.23,109.59,98.17,111.85Zm4.42,6.23c1,1.42,2.31,3.19,4.52,1.57a5,5,0,0,0,1-1l-4.05-5.54a2.72,2.72,0,0,0-1.47.66C100.77,115.07,101.38,116.42,102.59,118.08Z"/><path class="cls-1" d="M90.19,112.46l-.5.21c-1,.41-1.19,1.08-.9,1.79L94,127.1l.84-.35c2.11-.86,2.35-3.36,1-6.78l.14,0a18.37,18.37,0,0,0,3.24,5.64l0,.11c-.67-.09-1.9.32-5.4,1.75l-1.6.66c-3.5,1.43-4.66,2-5.08,2.53l-.09-.06a18.31,18.31,0,0,0-1.65-6.3l.14,0c1.42,3.39,3.34,5,5.46,4.14l.84-.34-5.18-12.64a1.28,1.28,0,0,0-1.89-.65l-.51.21-.08-.21,6-2.45Z"/><path class="cls-1" d="M81,115.7a39,39,0,0,0,.36,6.77l-.13,0c-.72-4.3-2.36-6.32-4.83-5.89a2.6,2.6,0,0,0-2.2,3.24c.3,1.78,2.09,2.45,3.89,3.37s4.16,1.67,4.59,4.17c.4,2.3-1.07,4.07-3.84,4.55-.91.16-1.78.22-2.48.34s-1.32.34-1.51.81l-.14-.08a37.57,37.57,0,0,0-.63-6.31l.13,0c.91,4,2.7,5.37,4.53,5s2.28-1.53,2.08-2.68c-.35-2-2.36-2.76-4.22-3.67s-3.91-1.56-4.3-3.82c-.42-2.47,1.13-4.66,4.17-5.18,1.3-.23,2.62.08,3.5-.07a1,1,0,0,0,.89-.69Z"/><path class="cls-1" d="M60.5,116.1c.32.87.74,1,5.06,1.17l5.72.23v.22l-.54,0c-1.1,0-1.53.49-1.56,1.26l-.49,12.32c0,.76.36,1.33,1.46,1.37l.54,0v.22l-6.13-.25c-3.63-.14-4.15-.05-4.58.52l-.09-.11a27.63,27.63,0,0,0,.36-5.82l.16-.11c.38,3.61.64,5.16,3.57,5.28l2.29.09.27-6.75c-2.74-.13-3.07.49-3.62,2.39l-.12-.07a24.64,24.64,0,0,0,.14-5.84l.13-.1c.36,2.55.57,3.28,3.48,3.4l.32-8-2-.08c-1.92-.07-4.19,1-5.24,6.14h-.17a41.67,41.67,0,0,0,1-7.47Z"/><path class="cls-1" d="M54.05,129.89l.08,0,3.24-11.67a1.41,1.41,0,0,0-1-1.89l-.62-.17.06-.21,4.3,1.19-.06.21-.51-.14a1.4,1.4,0,0,0-1.86,1L54.38,130c-.23.82.11,1.4,1.11,1.67l.52.15L56,132l-4.41-1.22-3.31-11.93-2.36,8.52a1.41,1.41,0,0,0,1,1.89l.63.18-.06.21-4.31-1.2.06-.21.52.15a1.41,1.41,0,0,0,1.87-1.08l3.74-13.47.1,0Z"/><path class="cls-1" d="M47,114.36a1.42,1.42,0,0,1-2,.67,1.43,1.43,0,1,1,2-.67Z"/></svg>